<svg xmlns="http://www.w3.org/2000/svg" viewBox="0 0 78.67 120.29"><defs><style>.cls-1{fill:#002c6c;}.cls-2{fill:#208b48;}</style></defs><g id="Layer_2" data-name="Layer 2"><g id="Layer_1-2" data-name="Layer 1"><path class="cls-1" d="M43.87,0c5.75,23.55-28.22,39.15-30.69,64.27C12,76.74,21.41,86.94,31.37,92.49-7.85,53.37,61,36.1,43.87,0"/><path class="cls-1" d="M47.13,27.82c34,35.51-12.46,47.18-15.46,81.77a20.11,20.11,0,0,0,3,10.7c-9.5-28,64-59.22,12.5-92.47"/><path class="cls-2" d="M0,77.35c.18,7.4,11.3,8.14,11.8,0-.18-7.41-11.31-8.14-11.8,0"/><path class="cls-2" d="M52.33,37.51H37.72l-1.42,2H53.61c-.42-.68-.93-1.48-1.28-2"/><path class="cls-2" d="M26.32,82.44H40.94l1.41-2H25c.47.74.9,1.42,1.28,2"/><path class="cls-2" d="M66.88,42.59c.17,7.4,11.3,8.14,11.79,0-.17-7.41-11.31-8.14-11.79,0"/><path class="cls-2" d="M29.84,48.25c-.6.84-1,1.46-1.38,2h29a16.2,16.2,0,0,0-.27-2Z"/><path class="cls-2" d="M21.44,71.69H48.81c.6-.82,1-1.44,1.38-2h-29a14.19,14.19,0,0,0,.25,2"/><path class="cls-2" d="M22.52,61h32.8c.55-1.25.68-1.62.82-2H23.33c-.55,1.25-.68,1.62-.81,2"/></g></g></svg>